<svg xmlns="http://www.w3.org/2000/svg" width="560" height="190" viewBox="530 570 560 190" role="img" aria-labelledby="title desc">
  <title id="title">VOZ wordmark, transparent background</title>
  <desc id="desc">Standalone metallic white VOZ wordmark traced as editable SVG paths on a transparent background.</desc>
  <defs>
    <!-- Background: near-black with a faint blue center bloom and vignette. -->
    <radialGradient id="backgroundGradient" cx="50%" cy="50%" r="65%">
      <stop offset="0%" stop-color="#06101d"/>
      <stop offset="42%" stop-color="#020714"/>
      <stop offset="100%" stop-color="#000106"/>
    </radialGradient>
    <radialGradient id="stageGlow" cx="50%" cy="54%" r="38%">
      <stop offset="0%" stop-color="#0b58ff" stop-opacity="0.18"/>
      <stop offset="48%" stop-color="#072a91" stop-opacity="0.07"/>
      <stop offset="100%" stop-color="#000000" stop-opacity="0"/>
    </radialGradient>

    <!-- Blue mark gradients. -->
    <linearGradient id="blueBody" x1="210" y1="470" x2="424" y2="790" gradientUnits="userSpaceOnUse">
      <stop offset="0%" stop-color="#13a7ff"/>
      <stop offset="45%" stop-color="#007cff"/>
      <stop offset="100%" stop-color="#003eff"/>
    </linearGradient>
    <linearGradient id="blueBars" x1="425" y1="635" x2="560" y2="438" gradientUnits="userSpaceOnUse">
      <stop offset="0%" stop-color="#0063ff"/>
      <stop offset="54%" stop-color="#009dff"/>
      <stop offset="100%" stop-color="#1fd3ff"/>
    </linearGradient>
    <linearGradient id="blueInnerShadow" x1="368" y1="606" x2="423" y2="704" gradientUnits="userSpaceOnUse">
      <stop offset="0%" stop-color="#00114f" stop-opacity="0.92"/>
      <stop offset="62%" stop-color="#0029b7" stop-opacity="0.62"/>
      <stop offset="100%" stop-color="#0093ff" stop-opacity="0.18"/>
    </linearGradient>
    <linearGradient id="cyanEdge" x1="480" y1="590" x2="560" y2="438" gradientUnits="userSpaceOnUse">
      <stop offset="0%" stop-color="#005aff"/>
      <stop offset="60%" stop-color="#00aaff"/>
      <stop offset="100%" stop-color="#27dcff"/>
    </linearGradient>

    <!-- Metallic wordmark gradient. -->
    <linearGradient id="metal" x1="565" y1="600" x2="1060" y2="724" gradientUnits="userSpaceOnUse">
      <stop offset="0%" stop-color="#f7f7fa"/>
      <stop offset="20%" stop-color="#ffffff"/>
      <stop offset="38%" stop-color="#d7d8dd"/>
      <stop offset="54%" stop-color="#ffffff"/>
      <stop offset="76%" stop-color="#e5e6ea"/>
      <stop offset="100%" stop-color="#ffffff"/>
    </linearGradient>
    <linearGradient id="metalHighlight" x1="620" y1="596" x2="1025" y2="731" gradientUnits="userSpaceOnUse">
      <stop offset="0%" stop-color="#ffffff" stop-opacity="0"/>
      <stop offset="47%" stop-color="#ffffff" stop-opacity="0.50"/>
      <stop offset="55%" stop-color="#ffffff" stop-opacity="0.08"/>
      <stop offset="100%" stop-color="#ffffff" stop-opacity="0"/>
    </linearGradient>

    <!-- Soft glows/shadows. -->
    <filter id="blueGlow" x="150" y="390" width="460" height="450" filterUnits="userSpaceOnUse">
      <feGaussianBlur in="SourceAlpha" stdDeviation="14" result="blur"/>
      <feFlood flood-color="#006bff" flood-opacity="0.42" result="glow"/>
      <feComposite in="glow" in2="blur" operator="in" result="coloredGlow"/>
      <feMerge>
        <feMergeNode in="coloredGlow"/>
        <feMergeNode in="SourceGraphic"/>
      </feMerge>
    </filter>
    <filter id="cyanGlow" x="380" y="395" width="220" height="310" filterUnits="userSpaceOnUse">
      <feGaussianBlur in="SourceAlpha" stdDeviation="8" result="blur"/>
      <feFlood flood-color="#00c8ff" flood-opacity="0.34" result="glow"/>
      <feComposite in="glow" in2="blur" operator="in" result="coloredGlow"/>
      <feMerge>
        <feMergeNode in="coloredGlow"/>
        <feMergeNode in="SourceGraphic"/>
      </feMerge>
    </filter>
    <filter id="textShadow" x="530" y="570" width="560" height="190" filterUnits="userSpaceOnUse">
      <feDropShadow dx="0" dy="4" stdDeviation="5" flood-color="#000000" flood-opacity="0.62"/>
      <feDropShadow dx="0" dy="0" stdDeviation="2" flood-color="#ffffff" flood-opacity="0.15"/>
    </filter>
  
  </defs>
  <g id="voz-wordmark" filter="url(#textShadow)" fill="url(#metal)">
    <!-- Wordmark V: open angular letter with clipped diagonal legs. -->
    <path id="letter-v" d="
      M563 601
      L585 601
      L644 703
      C645 705 648 705 649 702
      L704 601
      L727 602
      L661 720
      C659 723 657 724 653 724
      L632 724
      C628 724 626 721 623 716
      Z"/>

    <!-- Wordmark O: rounded rectangular ring with the center knocked out. -->
    <path id="letter-o" fill-rule="evenodd" d="
      M788 600
      L862 600
      C884 600 898 616 898 637
      L898 688
      C898 710 880 724 862 724
      L788 724
      C766 724 753 708 753 688
      L753 637
      C753 616 767 600 788 600
      Z
      M790 620
      L862 620
      C872 620 879 628 879 638
      L879 687
      C879 697 871 704 862 704
      L789 704
      C779 704 772 696 772 686
      L772 638
      C772 628 780 620 790 620
      Z"/>

    <!-- Wordmark Z: long top bar, diagonal slash, and long base bar. -->
    <path id="letter-z" d="
      M934 601
      L1054 602
      C1058 603 1060 606 1060 611
      C1060 615 1058 619 1056 623
      L967 703
      L1059 704
      L1059 723
      L941 723
      C936 723 933 719 933 714
      C933 709 935 705 938 702
      L1026 621
      L934 620
      Z"/>
  </g>

  <g id="wordmark-sheen" opacity="0.28" fill="url(#metalHighlight)">
    <path d="
      M563 601 L585 601 L644 703 C645 705 648 705 649 702 L704 601 L727 602 L661 720 C659 723 657 724 653 724 L632 724 C628 724 626 721 623 716 Z"/>
    <path fill-rule="evenodd" d="
      M788 600 L862 600 C884 600 898 616 898 637 L898 688 C898 710 880 724 862 724 L788 724 C766 724 753 708 753 688 L753 637 C753 616 767 600 788 600 Z
      M790 620 L862 620 C872 620 879 628 879 638 L879 687 C879 697 871 704 862 704 L789 704 C779 704 772 696 772 686 L772 638 C772 628 780 620 790 620 Z"/>
    <path d="
      M934 601 L1054 602 C1058 603 1060 606 1060 611 C1060 615 1058 619 1056 623 L967 703 L1059 704 L1059 723 L941 723 C936 723 933 719 933 714 C933 709 935 705 938 702 L1026 621 L934 620 Z"/>
  </g>

</svg>
