<svg xmlns="http://www.w3.org/2000/svg" viewBox="0 0 100 100">
  <!-- warble mark v3: the bird IS the waveform — vertical bars whose envelope traces a
       songbird (tail, body, crown, beak); the gap in the crown bar is the eye. -->
  <g fill="#000000">
        <rect x="7.80" y="56.00" width="4.40" height="6.00" rx="2.20"/>
    <rect x="14.40" y="52.23" width="4.40" height="13.54" rx="2.20"/>
    <rect x="21.00" y="46.69" width="4.40" height="24.63" rx="2.20"/>
    <rect x="27.60" y="42.69" width="4.40" height="33.46" rx="2.20"/>
    <rect x="34.20" y="40.46" width="4.40" height="38.09" rx="2.20"/>
    <rect x="40.80" y="40.00" width="4.40" height="39.00" rx="2.20"/>
    <rect x="47.40" y="41.31" width="4.40" height="35.71" rx="2.20"/>
    <rect x="54.00" y="43.40" width="4.40" height="28.40" rx="2.20"/>
    <rect x="60.60" y="25.20" width="4.40" height="26.80" rx="2.20"/>
    <rect x="67.20" y="21.30" width="4.40" height="26.90" rx="2.20"/>
    <rect x="73.80" y="23.00" width="4.40" height="23.00" rx="2.20"/>
    <rect x="80.40" y="29.06" width="4.40" height="9.06" rx="2.20"/>
  </g>
</svg>
